# xmcd CD database file
#
# Track frame offsets:
#	150
#	16102
#	27975
#	44242
#	61942
#	78852
#	92887
#	106742
#	122402
#	136770
#	150962
#	163457
#	177755
#	194567
#	211425
#	226492
#	242187
#	261155
#	277010
#	293955
#	313217
#	323955
#
# Disc length: 4582 seconds
#
# Revision: 9
# Processed by: cddbd v1.5.2PL0 Copyright (c) Steve Scherf et al.
# Submitted via: CDex 1.50
#
DISCID=3d11e416
DTITLE=Emmylou Harris - Anthology: The Warner - Reprise Years CD01
DYEAR=2001
DGENRE=Country
TTITLE0=Too Far Gone
TTITLE1=If I Could Only Win Your Love
TTITLE2=Boulder To Birmingham
TTITLE3=Together Again
TTITLE4=Here, There And Everywhere
TTITLE5=One Of These Days
TTITLE6=Sweet Dreams (Live)
TTITLE7=(You Can Never Tell) C'est La Vie
TTITLE8=Making Believe
TTITLE9=Easy From Now On
TTITLE10=To Daddy
TTITLE11=Two More Bottles Of Wine
TTITLE12=Save The Last Dance For Me
TTITLE13=Beneath Still Waters
TTITLE14=Blue Kentucky Girl
TTITLE15=Wayfaring Stranger
TTITLE16=That Lovin' You Feelin' Again (with Roy Orbison)
TTITLE17=The Boxer
TTITLE18=Precious Love
TTITLE19=Fools Thin Air
TTITLE20=Mister Sandman
TTITLE21=Colors Of Your Heart
EXTD=YEAR: 2001
EXTT0=
EXTT1=
EXTT2=
EXTT3=
EXTT4=
EXTT5=
EXTT6=
EXTT7=
EXTT8=
EXTT9=
EXTT10=
EXTT11=
EXTT12=
EXTT13=
EXTT14=
EXTT15=
EXTT16=
EXTT17=
EXTT18=
EXTT19=
EXTT20=
EXTT21=
PLAYORDER=
